<svg xmlns="http://www.w3.org/2000/svg" width="258.033" height="332.2" viewBox="181 73.801 258.033 332.2"><g data-name="Layer_1-2"><g data-name="Group 58359"><g data-name="Group 58358"><path d="M438.19 382.38 435 396.84c-1.34 6.08-4.57 9.15-9.72 9.15h-34.43l.8-3.64h4.84c3.33 0 5.64-2.24 6.98-6.66l2.94-13.31h3.64l-3.19 14.46c-.47 2.13-1.17 3.9-2.05 5.3l-.05.21h6.81c3.33 0 4.78-1.61 5.99-7.13l2.83-12.85h3.64l-3.19 14.46c-.49 2.24-1.22 4.11-2.2 5.51h6.24c3.9 0 5.56-1.61 6.77-7.13l2.83-12.85h3.69Z" fill="#232323" fill-rule="evenodd" data-name="Path 6509"/><path d="M392 405.99h-10.97l.8-3.64h10.97l-.8 3.64Z" fill="#232323" fill-rule="evenodd" data-name="Path 6508"/><path d="M381.7 405.99h-10.97l.8-3.64h10.98l-.81 3.64Z" fill="#232323" fill-rule="evenodd" data-name="Path 6507"/><path d="M371.41 405.99h-10.98l.8-3.64h10.98l-.8 3.64Z" fill="#232323" fill-rule="evenodd" data-name="Path 6506"/><path d="M361.11 405.99h-10.98l.81-3.64h10.97l-.8 3.64Z" fill="#232323" fill-rule="evenodd" data-name="Path 6505"/><path d="M350.81 405.99h-10.97l.8-3.64h10.97l-.8 3.64Z" fill="#232323" fill-rule="evenodd" data-name="Path 6504"/><path d="M340.51 405.99h-10.97l.8-3.64h10.98l-.81 3.64Z" fill="#232323" fill-rule="evenodd" data-name="Path 6503"/><path d="M330.22 405.99h-10.98l.81-3.64h10.97l-.8 3.64Z" fill="#232323" fill-rule="evenodd" data-name="Path 6502"/><path d="M319.92 405.99h-10.97l.8-3.64h10.97l-.8 3.64Z" fill="#232323" fill-rule="evenodd" data-name="Path 6501"/><path d="M309.62 405.99h-10.97l.8-3.64h10.98l-.81 3.64Z" fill="#232323" fill-rule="evenodd" data-name="Path 6500"/><path d="M299.32 405.99h-10.97l.8-3.64h10.98l-.81 3.64Z" fill="#232323" fill-rule="evenodd" data-name="Path 6499"/><path d="M291.3 405.99h-72.13l.8-3.64h19.24c1.02-4.63 1.02-8.37-.08-11.18-1.33-3.38-4.17-5.15-8.43-5.41h-1.4l.76-3.43c10.97 0 15.28 6.66 12.9 20.02h49.14l-.8 3.64Z" fill="#232323" fill-rule="evenodd" data-name="Path 6498"/><path d="M214.7 405.99h-3.64l7.42-33.65h3.65l-7.43 33.65Z" fill="#232323" fill-rule="evenodd" data-name="Path 6497"/><path d="M204.09 405.99H181l.8-3.64h19.25c1.02-4.63 1.02-8.37-.08-11.18-1.33-3.38-4.17-5.15-8.43-5.41h-1.4l.76-3.43c7.33 0 11.74 2.91 13.1 8.74.84 3.48.53 8.42-.9 14.93" fill="#232323" fill-rule="evenodd" data-name="Path 6496"/></g><g data-name="Group 58357"><path d="M438.93 339.74c-1.04 12.18-9.92 24.49-27.22 24.46-6.07 0-13.34-.02-19.41-.03l4.94-48.18c6.07 0 13.34.02 19.41.03 16.94.03 23.29 11.81 22.28 23.71Zm-36.48 15.71 10.16.02c11.22.02 16.49-7.96 17.08-15.81.56-7.5-3.19-15.01-13.92-15.03l-10.16-.02-3.16 30.83Z" fill="#232323" fill-rule="evenodd" data-name="Path 6495"/><path d="m373.82 355.05-25.83-.04-5.17 9.08-10.09-.02 27.1-48.14 10.16.02 17.23 48.21-10.16-.02-3.23-9.09Zm-9.95-29-11.28 20.5 18.35.03-7.08-20.52Z" fill="#232323" fill-rule="evenodd" data-name="Path 6494"/><path d="M334.18 339.57c-1.04 12.18-9.92 24.49-27.22 24.46-6.07 0-13.34-.02-19.41-.03l4.94-48.18c6.07 0 13.34.02 19.41.03 16.94.03 23.29 11.81 22.28 23.71Zm-36.48 15.71 10.16.02c11.22.02 16.49-7.96 17.08-15.8.56-7.5-3.19-15.01-13.92-15.03l-10.16-.02-3.16 30.83Z" fill="#232323" fill-rule="evenodd" data-name="Path 6493"/><path d="m269.08 354.89-25.83-.04-5.17 9.08-10.09-.02 27.1-48.14 10.16.02L282.48 364l-10.16-.02-3.23-9.09Zm-9.95-29-11.28 20.5 18.35.03-7.08-20.52Z" fill="#232323" fill-rule="evenodd" data-name="Path 6492"/><path d="M220.65 327.35c-1.41-2.75-5.8-5.38-11.17-5.39-6.92-.01-10.52 2.81-10.89 6.38-.43 4.2 4.53 5.38 10.39 6.07 10.18 1.25 19.51 3.88 18.33 15.38-1.1 10.74-11.31 15.33-22.32 15.31-10.09-.02-17.55-3.06-20.32-11.87l8.17-3.91c1.65 5.3 7.12 7.65 13.12 7.66 5.86 0 11.57-1.98 12.1-7.21.47-4.54-4.21-6.41-10.71-7.11-9.97-1.19-19.02-3.82-17.92-14.62 1.02-9.91 11.45-13.96 20.57-14.01 7.69.01 15.45 2.16 18.43 9.6l-7.79 3.71Z" fill="#232323" fill-rule="evenodd" data-name="Path 6491"/></g><g data-name="Group 58356"><path d="M383.21 79.96H388.43c.73 0 1.4.18 2.01.58.51.34.91.78 1.18 1.33.31.62.43 1.29.35 1.98-.13 1.14-.67 2.03-1.65 2.63-.2.12-.41.2-.62.3-.02 0-.04.02-.07.03l1.48 3.7h-1.68c-.07 0-.1-.02-.12-.08-.44-1.12-.89-2.23-1.34-3.35-.03-.06-.05-.09-.12-.09h-2.91v3.51h-1.75V79.96Zm1.76 1.76v3.52h3.5c.14 0 .29-.01.43-.05.77-.18 1.27-.75 1.34-1.53.06-.64-.15-1.18-.67-1.59-.33-.26-.72-.35-1.14-.35H384.98Z" fill="#4a8ff7" fill-rule="evenodd" data-name="Path 6490"/><path d="M398.16 85.24c0 6.32-5.13 11.44-11.44 11.43-6.34 0-11.44-5.13-11.43-11.44a11.43 11.43 0 0 1 11.44-11.43c6.32 0 11.44 5.13 11.43 11.44Zm-1.76 0c0-5.34-4.35-9.68-9.68-9.67-5.34 0-9.67 4.33-9.67 9.67 0 5.33 4.33 9.68 9.67 9.68s9.68-4.34 9.68-9.68Z" fill="#4a8ff7" fill-rule="evenodd" data-name="Path 6489"/></g><g data-name="Group 58355"><path d="M0 29.37a29.47 29.47 0 1 1 0 .1z" fill-rule="evenodd" fill="url(&quot;#a&quot;)" transform="translate(273.88 229.64)" data-name="Ellipse 129"/><path d="M359.04 242.96s-1.05 4.4-5.57 9.54l4.04-3.2 3.24-5.26-1.7-1.08Z" fill="#4a8ff7" fill-rule="evenodd" data-name="Path 6488"/><g data-name="Group 58354"><path d="M353.88 248.56c-.63-3.5-2.08-6.53-4.77-8.93-3.05-2.71-6.5-4.78-10.25-6.32-4.85-1.99-9.82-3.62-14.82-5.14 8.08 4.63 13.87 12.96 14.86 22.93.53 5.35-.39 10.51-2.44 15.09 5.51-4.43 10.97-8.92 16.49-13.35.92-1.3 1.21-2.73.93-4.3Z" fill="#4a8ff7" fill-rule="evenodd" data-name="Path 6487"/><path d="M306.47 224.28c1.51-.15 3.04-.24 4.51-.16-1.03-.31-2.1-.56-3.12-.88-.84-.26-1.65-.25-2.43.2-.51.4-1.02.81-1.54 1.21.85-.16 1.71-.28 2.58-.37Z" fill="#4a8ff7" fill-rule="evenodd" data-name="Path 6486"/></g><path d="M296.68 130.17s1.59-3.71 4.21-6.13l-7.8 5.97 3.59.16Z" fill="#4a8ff7" fill-rule="evenodd" data-name="Path 6485"/><path d="M183.05 25.12c-8.82.03-17.63-.12-26.45-.17-7.64-.05-15.28-.08-22.92-.08-1.77 0-3.71.05-4.62 1.92-.95 1.96.24 3.55 1.38 5.04 1.07 1.4 2.12 2.83 3.32 4.11 1.22 1.3 1.27 2.05-.29 3.27-6.29 4.89-6.69 5.51-12.89 10.51l-2.34 1.79c.47.97-.48 1.33-.85 1.87-6.76 9.82-3.58 24.6 9.15 29.4 8.84 3.33 18.09 5.59 27.16 8.32.35-.81 1.15-1.16 1.78-1.68 3.59-2.93 7.19-5.85 10.78-8.77.22-.15.71-.54 1.22-.95-.04.02-.08.04-.12.05.49-.4.98-.8 1.47-1.19.56-.42-.42.39-1.35 1.14.79-.31 1.49.03 2.28 1.18 1.33 1.93 2.81 3.79 4.49 5.42 2.25 2.17 4.52 1.57 5.75-1.3.26-.61.45-1.26.59-1.92 3.52-16.13 7.04-32.25 10.52-48.38 1.34-6.21-1.65-9.61-8.05-9.58Z" fill-rule="evenodd" fill="url(&quot;#b&quot;)" transform="translate(181 73.8)" data-name="Path 6484"/><path d="M118.96 51.12c-2.51 3.05-3.73 6.34-3.73 6.34l.92 1.1 3.11-7.38c-.1-.02-.2-.04-.3-.07Z" fill-rule="evenodd" fill="url(&quot;#c&quot;)" transform="translate(181 73.8)" data-name="Path 6483"/><g data-name="Group 58353"><path d="M344.86 218.92c-8.25-2.52-16.49-5.05-24.74-7.58l-.62.52-4.29 3.62-.64.52-.03.02c-3.08 2.53-6.19 5.03-9.28 7.54.65.2 1.3.39 1.96.59 4.37-.32 8.58.32 12.62 1.92.68.25 1.36.53 2.04.84l4.98 3.12c5.48 1.59 10.87 3.36 15.87 6.15 6.53 3.64 11.4 8.31 10.21 16.68l.18-.09 2.63-2.06s.05-.06.07-.09c0-1.84 1.46-3 2.13-4.54 4.86-11.2-1.04-23.46-13.1-27.16Z" fill="#4a8ff7" fill-rule="evenodd" data-name="Path 6482"/><path d="m320.12 211.33-.75-.23.75.23Z" fill="#4a8ff7" fill-rule="evenodd" data-name="Path 6481"/></g><path d="M381.62 201.27c-3.39-16.05-13.66-26.3-29.42-31-5.86-1.75-11.69-3.58-17.53-5.37-1.04-1.58-2.85-1.69-4.41-2.17-7.22-2.24-14.55-4.18-21.69-6.67-6.04-2.11-10.32-6.3-12-12.62-1.47-5.53-.82-10.82 2.44-15.69.43-.64 1.81-1.49.21-2.42-4.76 3.57-9.48 7.2-13.89 11.19-22.63 20.48-15.34 57.96 13.37 68.31 6.68 2.41 13.6 4.17 20.42 6.21l.08.02c.06.02.11.03.17.05l.76.23-.35.29c.84.89 2.01 1.22 3.18 1.57 7.64 2.28 15.31 4.44 22.85 7.01 11.49 3.91 16.25 16.68 10.35 27.28-.45.8-1.01 1.57-1.05 2.53-.02.44.09.86.71.59 3.81-3.01 7.72-5.91 11.42-9.05 12.52-10.65 17.77-24.22 14.37-40.29Z" fill="#4a8ff7" fill-rule="evenodd" data-name="Path 6480"/></g></g></g><defs><linearGradient x1="0" y1=".502" x2=".998" y2=".502" id="c"><stop stop-color="#4a8ff7" offset="0"/><stop stop-color="#4382e1" offset=".29"/><stop stop-color="#3160ab" offset=".89"/><stop stop-color="#2e5aa0" offset="1"/></linearGradient><linearGradient x1=".937" y1="-.012" x2=".154" y2=".903" id="b"><stop stop-color="#4a8ff7" offset="0"/><stop stop-color="#488cf3" offset=".23"/><stop stop-color="#4586e8" offset=".44"/><stop stop-color="#3f7bd6" offset=".64"/><stop stop-color="#376bbd" offset=".83"/><stop stop-color="#2e5aa0" offset="1"/></linearGradient><linearGradient x1=".146" y1=".854" x2=".854" y2=".146" id="a"><stop stop-color="#00ff85" offset="0"/><stop stop-color="#00fb85" offset=".22"/><stop stop-color="#00ef85" offset=".42"/><stop stop-color="#00dc85" offset=".62"/><stop stop-color="#00c285" offset=".81"/><stop stop-color="#00a185" offset="1"/></linearGradient></defs></svg>